<svg xmlns="http://www.w3.org/2000/svg" viewBox="0 0 1440 900">
  <defs>
    <linearGradient id="g" x1="0" x2="1" y1="0" y2="1">
      <stop offset="0%" stop-color="#f472b6"/>
      <stop offset="100%" stop-color="#9333ea"/>
    </linearGradient>
    <filter id="soft" x="-20%" y="-20%" width="140%" height="140%">
      <feGaussianBlur stdDeviation="30" />
    </filter>
  </defs>
  <rect width="1440" height="900" fill="#0b1220"/>
  <g filter="url(#soft)" opacity="0.25">
    <circle cx="240" cy="220" r="180" fill="url(#g)"/>
    <circle cx="1200" cy="680" r="220" fill="url(#g)"/>
  </g>
  <rect x="120" y="120" width="1200" height="660" rx="22" fill="#0f172a" stroke="#1f2937" stroke-width="6"/>
  <rect x="120" y="120" width="1200" height="86" rx="22" fill="#0d1424" />
  <rect x="150" y="145" width="160" height="38" rx="10" fill="url(#g)"/>
  <rect x="330" y="145" width="120" height="38" rx="10" fill="#111827"/>
  <rect x="460" y="145" width="120" height="38" rx="10" fill="#111827"/>
  <rect x="590" y="145" width="120" height="38" rx="10" fill="#111827"/>
  <rect x="150" y="240" width="520" height="32" rx="6" fill="#20304a"/>
  <rect x="150" y="285" width="480" height="22" rx="6" fill="#213654"/>
  <rect x="150" y="330" width="360" height="22" rx="6" fill="#213654"/>
  <rect x="150" y="380" width="400" height="300" rx="14" fill="#0b1526" stroke="#243246"/>
  <rect x="580" y="380" width="260" height="300" rx="14" fill="#0b1526" stroke="#243246"/>
  <rect x="870" y="240" width="430" height="440" rx="14" fill="#0b1526" stroke="#243246"/>
  <text x="140" y="820" fill="#cbd5e1" font-family="system-ui, -apple-system, Segoe UI, Roboto" font-size="44" font-weight="700">Renovations — Premium & Trust‑Led</text>
</svg>